<mxfile host="drawio-plugin" modified="2022-12-24T21:49:49.518Z" agent="5.0 (Windows NT 6.2; Win64; x64) AppleWebKit/537.36 (KHTML, like Gecko) Chrome/98.0.4758.102 Safari/537.36" etag="0AqtRtmqxTglB4y82YOi" version="20.5.3" type="embed"><diagram id="kgpKYQtTHZ0yAKxKKP6v" name="Page-1"><mxGraphModel dx="1063" dy="520" grid="1" gridSize="10" guides="1" tooltips="1" connect="1" arrows="1" fold="1" page="1" pageScale="1" pageWidth="850" pageHeight="1100" math="0" shadow="0"><root><mxCell id="0"/><mxCell id="1" parent="0"/><mxCell id="33" value="sd : Hotel App" style="shape=umlFrame;whiteSpace=wrap;html=1;fontSize=11;width=90;height=30;" vertex="1" parent="1"><mxGeometry x="30" y="40" width="860" height="860" as="geometry"/></mxCell><mxCell id="36" value="sd : Hotel App" style="shape=umlFrame;whiteSpace=wrap;html=1;fontSize=11;width=90;height=30;" vertex="1" parent="1"><mxGeometry x="30" y="40" width="860" height="860" as="geometry"/></mxCell><mxCell id="16" value="sd : Hotel App" style="shape=umlFrame;whiteSpace=wrap;html=1;fontSize=11;width=90;height=30;" parent="1" vertex="1"><mxGeometry x="30" y="40" width="860" height="860" as="geometry"/></mxCell><mxCell id="61" value="alt" style="shape=umlFrame;whiteSpace=wrap;html=1;" vertex="1" parent="1"><mxGeometry x="90" y="520" width="740" height="280" as="geometry"/></mxCell><mxCell id="3nuBFxr9cyL0pnOWT2aG-1" value="Central System" style="shape=umlLifeline;perimeter=lifelinePerimeter;container=1;collapsible=0;recursiveResize=0;rounded=0;shadow=0;strokeWidth=1;movable=1;resizable=1;rotatable=1;deletable=1;editable=1;connectable=1;" parent="1" vertex="1"><mxGeometry x="247" y="80" width="100" height="720" as="geometry"/></mxCell><mxCell id="3nuBFxr9cyL0pnOWT2aG-2" value="" style="points=[];perimeter=orthogonalPerimeter;rounded=0;shadow=0;strokeWidth=1;" parent="3nuBFxr9cyL0pnOWT2aG-1" vertex="1"><mxGeometry x="45" y="70" width="10" height="190" as="geometry"/></mxCell><mxCell id="7" value="alt" style="shape=umlFrame;whiteSpace=wrap;html=1;width=50;height=15;" parent="3nuBFxr9cyL0pnOWT2aG-1" vertex="1"><mxGeometry x="-156" y="105" width="240" height="105" as="geometry"/></mxCell><mxCell id="8" value="[ If Valid ]" style="text;html=1;align=center;verticalAlign=middle;resizable=0;points=[];autosize=1;strokeColor=none;fillColor=none;" parent="3nuBFxr9cyL0pnOWT2aG-1" vertex="1"><mxGeometry x="-150" y="120" width="70" height="30" as="geometry"/></mxCell><mxCell id="9" value="" style="endArrow=none;dashed=1;html=1;dashPattern=1 3;strokeWidth=2;rounded=0;fontSize=11;" parent="3nuBFxr9cyL0pnOWT2aG-1" edge="1"><mxGeometry width="50" height="50" relative="1" as="geometry"><mxPoint x="80" y="160" as="sourcePoint"/><mxPoint x="-157" y="160" as="targetPoint"/></mxGeometry></mxCell><mxCell id="14" value="SignUp" style="endArrow=none;html=1;rounded=0;fontSize=11;endSize=13;startArrow=open;startFill=0;dashed=1;" parent="3nuBFxr9cyL0pnOWT2aG-1" edge="1"><mxGeometry x="0.0545" y="10" width="50" height="50" relative="1" as="geometry"><mxPoint x="-65" y="185" as="sourcePoint"/><mxPoint x="45" y="185" as="targetPoint"/><mxPoint as="offset"/></mxGeometry></mxCell><mxCell id="15" value="[ Else ]" style="text;html=1;align=center;verticalAlign=middle;resizable=0;points=[];autosize=1;strokeColor=none;fillColor=none;" parent="3nuBFxr9cyL0pnOWT2aG-1" vertex="1"><mxGeometry x="-145" y="160" width="60" height="30" as="geometry"/></mxCell><mxCell id="2" value="Client" style="shape=umlActor;verticalLabelPosition=bottom;verticalAlign=top;html=1;outlineConnect=0;" parent="1" vertex="1"><mxGeometry x="160" y="50" width="30" height="60" as="geometry"/></mxCell><mxCell id="4" style="edgeStyle=orthogonalEdgeStyle;rounded=0;orthogonalLoop=1;jettySize=auto;html=1;dashed=1;endArrow=none;endFill=0;" parent="1" source="3" target="2" edge="1"><mxGeometry relative="1" as="geometry"/></mxCell><mxCell id="5" style="rounded=0;orthogonalLoop=1;jettySize=auto;html=1;endArrow=block;endFill=1;" parent="1" source="3" edge="1"><mxGeometry relative="1" as="geometry"><mxPoint x="290" y="170" as="targetPoint"/><Array as="points"><mxPoint x="250" y="170"/></Array></mxGeometry></mxCell><mxCell id="6" value="Login ()" style="edgeLabel;html=1;align=center;verticalAlign=middle;resizable=0;points=[];" parent="5" vertex="1" connectable="0"><mxGeometry x="-0.0293" y="4" relative="1" as="geometry"><mxPoint y="-5" as="offset"/></mxGeometry></mxCell><mxCell id="3" value="" style="points=[];perimeter=orthogonalPerimeter;rounded=0;shadow=0;strokeWidth=1;" parent="1" vertex="1"><mxGeometry x="170" y="151" width="10" height="649" as="geometry"/></mxCell><mxCell id="11" value="Grant Access" style="endArrow=none;html=1;rounded=0;fontSize=11;endSize=13;startArrow=open;startFill=0;dashed=1;" parent="1" edge="1"><mxGeometry x="0.0909" y="10" width="50" height="50" relative="1" as="geometry"><mxPoint x="180" y="215" as="sourcePoint"/><mxPoint x="290" y="215" as="targetPoint"/><mxPoint as="offset"/></mxGeometry></mxCell><mxCell id="12" value="&lt;div style=&quot;text-align: left;&quot;&gt;&lt;br&gt;&lt;/div&gt;" style="text;html=1;align=center;verticalAlign=middle;resizable=0;points=[];autosize=1;strokeColor=none;fillColor=none;fontSize=11;" parent="1" vertex="1"><mxGeometry x="190" y="395" width="20" height="30" as="geometry"/></mxCell><mxCell id="17" value="" style="endArrow=block;html=1;rounded=0;fontSize=11;endSize=6;endFill=1;" parent="1" source="3" edge="1"><mxGeometry width="50" height="50" relative="1" as="geometry"><mxPoint x="350" y="280" as="sourcePoint"/><mxPoint x="446" y="360" as="targetPoint"/></mxGeometry></mxCell><mxCell id="18" value="book()" style="edgeLabel;html=1;align=center;verticalAlign=middle;resizable=0;points=[];fontSize=11;" parent="17" vertex="1" connectable="0"><mxGeometry x="0.2785" y="2" relative="1" as="geometry"><mxPoint y="-8" as="offset"/></mxGeometry></mxCell><mxCell id="20" value="Booking" style="shape=umlLifeline;perimeter=lifelinePerimeter;container=1;collapsible=0;recursiveResize=0;rounded=0;shadow=0;strokeWidth=1;" parent="1" vertex="1"><mxGeometry x="400" y="80" width="100" height="720" as="geometry"/></mxCell><mxCell id="21" value="" style="points=[];perimeter=orthogonalPerimeter;rounded=0;shadow=0;strokeWidth=1;" parent="20" vertex="1"><mxGeometry x="45" y="280" width="10" height="100" as="geometry"/></mxCell><mxCell id="85" value="" style="shape=umlDestroy;whiteSpace=wrap;html=1;strokeWidth=3;" vertex="1" parent="20"><mxGeometry x="42.5" y="660" width="15" height="10" as="geometry"/></mxCell><mxCell id="29" value="" style="endArrow=block;html=1;rounded=0;fontSize=11;endSize=6;exitX=1.32;exitY=0.722;exitDx=0;exitDy=0;exitPerimeter=0;endFill=1;" parent="1" edge="1"><mxGeometry width="50" height="50" relative="1" as="geometry"><mxPoint x="453" y="369.998" as="sourcePoint"/><mxPoint x="610" y="369.998" as="targetPoint"/></mxGeometry></mxCell><mxCell id="30" value="createRoom()" style="edgeLabel;html=1;align=center;verticalAlign=middle;resizable=0;points=[];fontSize=11;" parent="29" vertex="1" connectable="0"><mxGeometry x="0.2785" y="2" relative="1" as="geometry"><mxPoint x="-20" y="-7" as="offset"/></mxGeometry></mxCell><mxCell id="25" value="Room" style="shape=umlLifeline;perimeter=lifelinePerimeter;container=1;collapsible=0;recursiveResize=0;rounded=0;shadow=0;strokeWidth=1;" parent="1" vertex="1"><mxGeometry x="565" y="80" width="100" height="720" as="geometry"/></mxCell><mxCell id="26" value="" style="points=[];perimeter=orthogonalPerimeter;rounded=0;shadow=0;strokeWidth=1;" parent="25" vertex="1"><mxGeometry x="45" y="280" width="10" height="60" as="geometry"/></mxCell><mxCell id="39" value="Bill" style="shape=umlLifeline;perimeter=lifelinePerimeter;container=1;collapsible=0;recursiveResize=0;rounded=0;shadow=0;strokeWidth=1;" vertex="1" parent="1"><mxGeometry x="730" y="80" width="100" height="720" as="geometry"/></mxCell><mxCell id="40" value="" style="points=[];perimeter=orthogonalPerimeter;rounded=0;shadow=0;strokeWidth=1;" vertex="1" parent="39"><mxGeometry x="45" y="351" width="10" height="349" as="geometry"/></mxCell><mxCell id="56" value="" style="endArrow=block;html=1;rounded=0;fontSize=11;endSize=6;endFill=1;" edge="1" parent="39"><mxGeometry width="50" height="50" relative="1" as="geometry"><mxPoint x="-271" y="358" as="sourcePoint"/><mxPoint x="46" y="358.49800000000005" as="targetPoint"/></mxGeometry></mxCell><mxCell id="57" value="createBill()" style="edgeLabel;html=1;align=center;verticalAlign=middle;resizable=0;points=[];fontSize=11;" vertex="1" connectable="0" parent="56"><mxGeometry x="0.2785" y="2" relative="1" as="geometry"><mxPoint x="40" y="-6" as="offset"/></mxGeometry></mxCell><mxCell id="59" value="" style="endArrow=none;dashed=1;html=1;dashPattern=1 3;strokeWidth=2;rounded=0;startArrow=block;startFill=1;" edge="1" parent="39" source="3"><mxGeometry width="50" height="50" relative="1" as="geometry"><mxPoint x="-110" y="400" as="sourcePoint"/><mxPoint x="50" y="400" as="targetPoint"/></mxGeometry></mxCell><mxCell id="60" value="requestPayment()" style="edgeLabel;html=1;align=center;verticalAlign=middle;resizable=0;points=[];" vertex="1" connectable="0" parent="59"><mxGeometry x="0.105" y="2" relative="1" as="geometry"><mxPoint x="-147" y="-8" as="offset"/></mxGeometry></mxCell><mxCell id="54" value="" style="endArrow=none;dashed=1;html=1;dashPattern=1 3;strokeWidth=2;rounded=0;startArrow=block;startFill=1;" edge="1" parent="1"><mxGeometry width="50" height="50" relative="1" as="geometry"><mxPoint x="454" y="395" as="sourcePoint"/><mxPoint x="614" y="395" as="targetPoint"/></mxGeometry></mxCell><mxCell id="55" value="roomCreated" style="edgeLabel;html=1;align=center;verticalAlign=middle;resizable=0;points=[];" vertex="1" connectable="0" parent="54"><mxGeometry x="0.105" y="2" relative="1" as="geometry"><mxPoint x="-7" y="-8" as="offset"/></mxGeometry></mxCell><mxCell id="65" value="[ If cash ]" style="text;html=1;align=center;verticalAlign=middle;resizable=0;points=[];autosize=1;strokeColor=none;fillColor=none;" vertex="1" parent="1"><mxGeometry x="90" y="557" width="70" height="30" as="geometry"/></mxCell><mxCell id="66" value="" style="endArrow=block;html=1;strokeWidth=1;rounded=0;startArrow=none;startFill=0;endFill=1;startSize=4;" edge="1" parent="1"><mxGeometry width="50" height="50" relative="1" as="geometry"><mxPoint x="180" y="502" as="sourcePoint"/><mxPoint x="780" y="502" as="targetPoint"/></mxGeometry></mxCell><mxCell id="67" value="specifyPaymentMethod()" style="edgeLabel;html=1;align=center;verticalAlign=middle;resizable=0;points=[];" vertex="1" connectable="0" parent="66"><mxGeometry x="0.105" y="2" relative="1" as="geometry"><mxPoint x="-147" y="-8" as="offset"/></mxGeometry></mxCell><mxCell id="68" value="" style="endArrow=none;dashed=1;html=1;dashPattern=1 3;strokeWidth=2;rounded=0;startArrow=block;startFill=1;" edge="1" parent="1"><mxGeometry width="50" height="50" relative="1" as="geometry"><mxPoint x="180" y="569" as="sourcePoint"/><mxPoint x="780" y="569" as="targetPoint"/></mxGeometry></mxCell><mxCell id="69" value="showBill()" style="edgeLabel;html=1;align=center;verticalAlign=middle;resizable=0;points=[];" vertex="1" connectable="0" parent="68"><mxGeometry x="0.105" y="2" relative="1" as="geometry"><mxPoint x="-147" y="-8" as="offset"/></mxGeometry></mxCell><mxCell id="70" value="" style="endArrow=none;html=1;rounded=0;fontSize=11;endSize=6;endFill=0;exitX=-0.001;exitY=0.424;exitDx=0;exitDy=0;exitPerimeter=0;" edge="1" parent="1" source="61"><mxGeometry width="50" height="50" relative="1" as="geometry"><mxPoint x="92" y="622" as="sourcePoint"/><mxPoint x="830" y="640" as="targetPoint"/></mxGeometry></mxCell><mxCell id="76" value="[ If card ]" style="text;html=1;align=center;verticalAlign=middle;resizable=0;points=[];autosize=1;strokeColor=none;fillColor=none;" vertex="1" parent="1"><mxGeometry x="90" y="645" width="70" height="30" as="geometry"/></mxCell><mxCell id="77" value="" style="endArrow=block;html=1;strokeWidth=1;rounded=0;startArrow=none;startFill=0;endFill=1;startSize=4;" edge="1" parent="1"><mxGeometry width="50" height="50" relative="1" as="geometry"><mxPoint x="182" y="665" as="sourcePoint"/><mxPoint x="782" y="665" as="targetPoint"/></mxGeometry></mxCell><mxCell id="78" value="enterCardInfo()" style="edgeLabel;html=1;align=center;verticalAlign=middle;resizable=0;points=[];" vertex="1" connectable="0" parent="77"><mxGeometry x="0.105" y="2" relative="1" as="geometry"><mxPoint x="-147" y="-8" as="offset"/></mxGeometry></mxCell><mxCell id="79" value="" style="endArrow=none;dashed=1;html=1;dashPattern=1 3;strokeWidth=2;rounded=0;startArrow=block;startFill=1;" edge="1" parent="1"><mxGeometry width="50" height="50" relative="1" as="geometry"><mxPoint x="179" y="687" as="sourcePoint"/><mxPoint x="779" y="687" as="targetPoint"/></mxGeometry></mxCell><mxCell id="80" value="showBill()" style="edgeLabel;html=1;align=center;verticalAlign=middle;resizable=0;points=[];" vertex="1" connectable="0" parent="79"><mxGeometry x="0.105" y="2" relative="1" as="geometry"><mxPoint x="-147" y="-8" as="offset"/></mxGeometry></mxCell><mxCell id="81" value="" style="endArrow=none;html=1;rounded=0;fontSize=11;endSize=6;endFill=0;entryX=1.007;entryY=0.424;entryDx=0;entryDy=0;entryPerimeter=0;exitX=-0.001;exitY=0.424;exitDx=0;exitDy=0;exitPerimeter=0;" edge="1" parent="1"><mxGeometry width="50" height="50" relative="1" as="geometry"><mxPoint x="87.25999999999999" y="719.72" as="sourcePoint"/><mxPoint x="833.1799999999998" y="719.72" as="targetPoint"/></mxGeometry></mxCell><mxCell id="82" value="[ else ]" style="text;html=1;align=center;verticalAlign=middle;resizable=0;points=[];autosize=1;strokeColor=none;fillColor=none;" vertex="1" parent="1"><mxGeometry x="98" y="721" width="60" height="30" as="geometry"/></mxCell><mxCell id="83" value="" style="endArrow=block;html=1;strokeWidth=1;rounded=0;startArrow=none;startFill=0;endFill=1;startSize=4;entryX=0.167;entryY=0.54;entryDx=0;entryDy=0;entryPerimeter=0;" edge="1" parent="1" target="85"><mxGeometry width="50" height="50" relative="1" as="geometry"><mxPoint x="178" y="744" as="sourcePoint"/><mxPoint x="440" y="744" as="targetPoint"/></mxGeometry></mxCell><mxCell id="84" value="cancelBooking()" style="edgeLabel;html=1;align=center;verticalAlign=middle;resizable=0;points=[];" vertex="1" connectable="0" parent="83"><mxGeometry x="0.105" y="2" relative="1" as="geometry"><mxPoint x="58" y="-8" as="offset"/></mxGeometry></mxCell></root></mxGraphModel></diagram></mxfile>